<svg width="19" height="19" viewBox="0 0 19 19" fill="none" xmlns="http://www.w3.org/2000/svg">
<path d="M11.5 9.62988C11.5 9.51468 11.4591 9.40868 11.3814 9.32574L8.14213 5.7497C8.06851 5.67136 7.97853 5.62988 7.87219 5.62988C7.6636 5.62988 7.5 5.80961 7.5 6.04924C7.5 6.16444 7.5409 6.27044 7.60634 6.34878L10.5838 9.62988L7.60634 12.911C7.5409 12.9893 7.5 13.0907 7.5 13.2105C7.5 13.4502 7.6636 13.6299 7.87219 13.6299C7.97853 13.6299 8.06851 13.5884 8.14213 13.5055L11.3814 9.93403C11.4591 9.84647 11.5 9.74509 11.5 9.62988Z" fill="#F1F1F1"/>
</svg>
